<svg xmlns="http://www.w3.org/2000/svg" version="1.1" xmlns:xlink="http://www.w3.org/1999/xlink" width="300" height="300"><svg xmlns="http://www.w3.org/2000/svg" version="1.1" xmlns:xlink="http://www.w3.org/1999/xlink" width="300" height="300"><svg data-v-fde0c5aa="" xmlns="http://www.w3.org/2000/svg" viewBox="0 0 300 300" class="icon"><!----><defs data-v-fde0c5aa=""><!----></defs><rect data-v-fde0c5aa="" fill="transparent" x="0" y="0" width="300px" height="300px" class="logo-background-square"></rect><!----><defs data-v-fde0c5aa=""><linearGradient data-v-fde0c5aa="" gradientTransform="rotate(25)" id="6cd7692a-f704-425a-b9a2-4e0b4bcbefaa" x1="0%" y1="0%" x2="100%" y2="0%"><stop data-v-fde0c5aa="" offset="0%" stop-color="#41E296" stop-opacity="1"></stop><stop data-v-fde0c5aa="" offset="100%" stop-color="#00C4EE" stop-opacity="1"></stop></linearGradient></defs><g data-v-fde0c5aa="" id="3b35c54f-18ce-432c-ab12-c638b5c05ddc" fill="url(#6cd7692a-f704-425a-b9a2-4e0b4bcbefaa)" stroke="none" transform="matrix(3.283860673614256,0,0,3.283860673614256,-14.192338435857366,-14.058757471604565)"><path d="M83.49 70.21a1.22 1.22 0 0 0 0-.26v-.09a1.22 1.22 0 0 0-.14-.33L55.81 22a1.51 1.51 0 0 0-1.3-.75h-8.83a1.27 1.27 0 0 0-.34.05h-.09a1.33 1.33 0 0 0-.24.1l-.09.05a1.21 1.21 0 0 0-.26.2 1.46 1.46 0 0 0-.21.28L16.71 69.52a1.5 1.5 0 0 0 .07 1.63l5 7 .05.06a1.29 1.29 0 0 0 .16.17l.09.08.18.12h.1l.22.08h.09a1.66 1.66 0 0 0 .33 0h55a1.51 1.51 0 0 0 1.3-.76l4-7a1.51 1.51 0 0 0 .13-.33 3.11 3.11 0 0 0 0-.32.38.38 0 0 0 .06-.04zm-29.84-46L79.4 68.78H38.88l3.26-5.53h26.64a1.51 1.51 0 0 0 1.31-.76 1.49 1.49 0 0 0 0-1.5L48.33 24.22zm-9.74 36l6.21-10.56 6.18 10.6zm-21 14.26l-3.11-4.32 25.92-44.5 20.43 34.6h-6.37L46.57 37.7a1.48 1.48 0 0 0-1.29-.7 1.5 1.5 0 0 0-1.29.75zm54.24 1.27H25.63l19.66-34.29 3.1 5.28L35 69.52A1.47 1.47 0 0 0 35 71a1.48 1.48 0 0 0 1.3.76h43.12z"></path></g><!----></svg></svg><style>@media (prefers-color-scheme: light) { :root { filter: none; } }
@media (prefers-color-scheme: dark) { :root { filter: none; } }
</style></svg>